<svg class="main-svg" xmlns="http://www.w3.org/2000/svg" xmlns:xlink="http://www.w3.org/1999/xlink" width="1000" height="450" style="" viewBox="0 0 1000 450"><rect x="0" y="0" width="1000" height="450" style="fill: rgb(255, 255, 255); fill-opacity: 1;"/><defs id="defs-000000"><g class="clips"><clipPath id="clip000000xyplot" class="plotclip"><rect width="744" height="270"/></clipPath><clipPath class="axesclip" id="clip000000x"><rect x="80" y="0" width="744" height="450"/></clipPath><clipPath class="axesclip" id="clip000000y"><rect x="0" y="100" width="1000" height="270"/></clipPath><clipPath class="axesclip" id="clip000000xy"><rect x="80" y="100" width="744" height="270"/></clipPath></g><g class="gradients"/><g class="patterns"/></defs><g class="bglayer"><rect class="bg" x="80" y="100" width="744" height="270" style="fill: rgb(229, 236, 246); fill-opacity: 1; stroke-width: 0;"/></g><g class="layer-below"><g class="imagelayer"/><g class="shapelayer"/></g><g class="cartesianlayer"><g class="subplot xy"><g class="layer-subplot"><g class="shapelayer"/><g class="imagelayer"/></g><g class="minor-gridlayer"><g class="x"/><g class="y"/></g><g class="gridlayer"><g class="x"/><g class="y"><path class="ygrid crisp" transform="translate(0,298.75)" d="M80,0h744" style="stroke: rgb(255, 255, 255); stroke-opacity: 1; stroke-width: 1px;"/><path class="ygrid crisp" transform="translate(0,227.5)" d="M80,0h744" style="stroke: rgb(255, 255, 255); stroke-opacity: 1; stroke-width: 1px;"/><path class="ygrid crisp" transform="translate(0,156.25)" d="M80,0h744" style="stroke: rgb(255, 255, 255); stroke-opacity: 1; stroke-width: 1px;"/></g></g><g class="zerolinelayer"><path class="yzl zl crisp" transform="translate(0,370)" d="M80,0h744" style="stroke: rgb(255, 255, 255); stroke-opacity: 1; stroke-width: 2px;"/></g><g class="layer-between"><g class="shapelayer"/><g class="imagelayer"/></g><path class="xlines-below"/><path class="ylines-below"/><g class="overlines-below"/><g class="xaxislayer-below"/><g class="yaxislayer-below"/><g class="overaxes-below"/><g class="overplot"><g class="xy" transform="translate(80,100)" clip-path="url(#clip000000xyplot)"><g class="barlayer mlayer"><g class="trace bars" style="opacity: 1;"><g class="points"><g class="point"><path d="M2.19,270V13.5H19.67V270Z" style="vector-effect: none; opacity: 1; stroke-width: 0.5px; fill: rgb(47, 111, 178); fill-opacity: 1; stroke: rgb(229, 236, 246); stroke-opacity: 1;"/></g><g class="point"><path d="M26.38,270V13.5H43.86V270Z" style="vector-effect: none; opacity: 1; stroke-width: 0.5px; fill: rgb(47, 111, 178); fill-opacity: 1; stroke: rgb(229, 236, 246); stroke-opacity: 1;"/></g><g class="point"><path d="M48.23,270V13.5H65.72V270Z" style="vector-effect: none; opacity: 1; stroke-width: 0.5px; fill: rgb(47, 111, 178); fill-opacity: 1; stroke: rgb(229, 236, 246); stroke-opacity: 1;"/></g><g class="point"><path d="M72.43,270V13.5H89.91V270Z" style="vector-effect: none; opacity: 1; stroke-width: 0.5px; fill: rgb(47, 111, 178); fill-opacity: 1; stroke: rgb(229, 236, 246); stroke-opacity: 1;"/></g><g class="point"><path d="M95.84,270V13.5H113.32V270Z" style="vector-effect: none; opacity: 1; stroke-width: 0.5px; fill: rgb(47, 111, 178); fill-opacity: 1; stroke: rgb(229, 236, 246); stroke-opacity: 1;"/></g><g class="point"><path d="M120.04,270V13.5H137.52V270Z" style="vector-effect: none; opacity: 1; stroke-width: 0.5px; fill: rgb(47, 111, 178); fill-opacity: 1; stroke: rgb(229, 236, 246); stroke-opacity: 1;"/></g><g class="point"><path d="M143.45,270V13.5H160.93V270Z" style="vector-effect: none; opacity: 1; stroke-width: 0.5px; fill: rgb(47, 111, 178); fill-opacity: 1; stroke: rgb(229, 236, 246); stroke-opacity: 1;"/></g><g class="point"><path d="M167.64,270V13.5H185.13V270Z" style="vector-effect: none; opacity: 1; stroke-width: 0.5px; fill: rgb(47, 111, 178); fill-opacity: 1; stroke: rgb(229, 236, 246); stroke-opacity: 1;"/></g><g class="point"><path d="M191.84,270V13.5H209.32V270Z" style="vector-effect: none; opacity: 1; stroke-width: 0.5px; fill: rgb(47, 111, 178); fill-opacity: 1; stroke: rgb(229, 236, 246); stroke-opacity: 1;"/></g><g class="point"><path d="M215.25,270V13.5H232.74V270Z" style="vector-effect: none; opacity: 1; stroke-width: 0.5px; fill: rgb(47, 111, 178); fill-opacity: 1; stroke: rgb(229, 236, 246); stroke-opacity: 1;"/></g><g class="point"><path d="M239.45,270V13.5H256.93V270Z" style="vector-effect: none; opacity: 1; stroke-width: 0.5px; fill: rgb(47, 111, 178); fill-opacity: 1; stroke: rgb(229, 236, 246); stroke-opacity: 1;"/></g><g class="point"><path d="M262.86,270V13.5H280.34V270Z" style="vector-effect: none; opacity: 1; stroke-width: 0.5px; fill: rgb(47, 111, 178); fill-opacity: 1; stroke: rgb(229, 236, 246); stroke-opacity: 1;"/></g><g class="point"><path d="M287.06,270V13.5H304.54V270Z" style="vector-effect: none; opacity: 1; stroke-width: 0.5px; fill: rgb(47, 111, 178); fill-opacity: 1; stroke: rgb(229, 236, 246); stroke-opacity: 1;"/></g><g class="point"><path d="M311.25,270V13.5H328.73V270Z" style="vector-effect: none; opacity: 1; stroke-width: 0.5px; fill: rgb(47, 111, 178); fill-opacity: 1; stroke: rgb(229, 236, 246); stroke-opacity: 1;"/></g><g class="point"><path d="M333.88,270V13.5H351.37V270Z" style="vector-effect: none; opacity: 1; stroke-width: 0.5px; fill: rgb(47, 111, 178); fill-opacity: 1; stroke: rgb(229, 236, 246); stroke-opacity: 1;"/></g><g class="point"><path d="M358.08,270V244.35H375.56V270Z" style="vector-effect: none; opacity: 1; stroke-width: 0.5px; fill: rgb(47, 111, 178); fill-opacity: 1; stroke: rgb(229, 236, 246); stroke-opacity: 1;"/></g><g class="point"><path d="M381.49,270V244.35H398.98V270Z" style="vector-effect: none; opacity: 1; stroke-width: 0.5px; fill: rgb(47, 111, 178); fill-opacity: 1; stroke: rgb(229, 236, 246); stroke-opacity: 1;"/></g><g class="point"><path d="M405.69,270V244.35H423.17V270Z" style="vector-effect: none; opacity: 1; stroke-width: 0.5px; fill: rgb(47, 111, 178); fill-opacity: 1; stroke: rgb(229, 236, 246); stroke-opacity: 1;"/></g></g></g><g class="trace bars" style="opacity: 1;"><g class="points"><g class="point"><path d="M429.1,270V244.35H446.58V270Z" style="vector-effect: none; opacity: 1; stroke-width: 0.5px; fill: rgb(142, 187, 227); fill-opacity: 1; stroke: rgb(229, 236, 246); stroke-opacity: 1;"/></g><g class="point"><path d="M453.3,270V244.35H470.78V270Z" style="vector-effect: none; opacity: 1; stroke-width: 0.5px; fill: rgb(142, 187, 227); fill-opacity: 1; stroke: rgb(229, 236, 246); stroke-opacity: 1;"/></g><g class="point"><path d="M477.49,270V244.35H494.97V270Z" style="vector-effect: none; opacity: 1; stroke-width: 0.5px; fill: rgb(142, 187, 227); fill-opacity: 1; stroke: rgb(229, 236, 246); stroke-opacity: 1;"/></g><g class="point"><path d="M500.9,270V244.35H518.39V270Z" style="vector-effect: none; opacity: 1; stroke-width: 0.5px; fill: rgb(142, 187, 227); fill-opacity: 1; stroke: rgb(229, 236, 246); stroke-opacity: 1;"/></g><g class="point"><path d="M525.1,270V244.35H542.58V270Z" style="vector-effect: none; opacity: 1; stroke-width: 0.5px; fill: rgb(142, 187, 227); fill-opacity: 1; stroke: rgb(229, 236, 246); stroke-opacity: 1;"/></g><g class="point"><path d="M548.51,270V244.35H566V270Z" style="vector-effect: none; opacity: 1; stroke-width: 0.5px; fill: rgb(142, 187, 227); fill-opacity: 1; stroke: rgb(229, 236, 246); stroke-opacity: 1;"/></g><g class="point"><path d="M572.71,270V244.35H590.19V270Z" style="vector-effect: none; opacity: 1; stroke-width: 0.5px; fill: rgb(142, 187, 227); fill-opacity: 1; stroke: rgb(229, 236, 246); stroke-opacity: 1;"/></g><g class="point"><path d="M596.9,270V244.35H614.39V270Z" style="vector-effect: none; opacity: 1; stroke-width: 0.5px; fill: rgb(142, 187, 227); fill-opacity: 1; stroke: rgb(229, 236, 246); stroke-opacity: 1;"/></g><g class="point"><path d="M618.76,270V244.35H636.24V270Z" style="vector-effect: none; opacity: 1; stroke-width: 0.5px; fill: rgb(142, 187, 227); fill-opacity: 1; stroke: rgb(229, 236, 246); stroke-opacity: 1;"/></g><g class="point"><path d="M642.95,270V244.35H660.43V270Z" style="vector-effect: none; opacity: 1; stroke-width: 0.5px; fill: rgb(142, 187, 227); fill-opacity: 1; stroke: rgb(229, 236, 246); stroke-opacity: 1;"/></g><g class="point"><path d="M666.36,270V244.35H683.85V270Z" style="vector-effect: none; opacity: 1; stroke-width: 0.5px; fill: rgb(142, 187, 227); fill-opacity: 1; stroke: rgb(229, 236, 246); stroke-opacity: 1;"/></g><g class="point"><path d="M690.56,270V244.35H708.04V270Z" style="vector-effect: none; opacity: 1; stroke-width: 0.5px; fill: rgb(142, 187, 227); fill-opacity: 1; stroke: rgb(229, 236, 246); stroke-opacity: 1;"/></g></g></g></g><g class="scatterlayer mlayer"><g class="trace scatter trace000001" style="stroke-miterlimit: 2; opacity: 1;"><g class="fills"/><g class="errorbars"/><g class="lines"/><g class="points"><path class="point" transform="translate(366.82,244.35)" d="M0,3.11l3.11,3.11l3.11,-3.11l-3.11,-3.11l3.11,-3.11l-3.11,-3.11l-3.11,3.11l-3.11,-3.11l-3.11,3.11l3.11,3.11l-3.11,3.11l3.11,3.11Z" style="opacity: 1; stroke-width: 0px; fill: rgb(192, 57, 43); fill-opacity: 1;"/><path class="point" transform="translate(390.23,244.35)" d="M0,3.11l3.11,3.11l3.11,-3.11l-3.11,-3.11l3.11,-3.11l-3.11,-3.11l-3.11,3.11l-3.11,-3.11l-3.11,3.11l3.11,3.11l-3.11,3.11l3.11,3.11Z" style="opacity: 1; stroke-width: 0px; fill: rgb(192, 57, 43); fill-opacity: 1;"/><path class="point" transform="translate(414.43,244.35)" d="M0,3.11l3.11,3.11l3.11,-3.11l-3.11,-3.11l3.11,-3.11l-3.11,-3.11l-3.11,3.11l-3.11,-3.11l-3.11,3.11l3.11,3.11l-3.11,3.11l3.11,3.11Z" style="opacity: 1; stroke-width: 0px; fill: rgb(192, 57, 43); fill-opacity: 1;"/></g><g class="text"/></g><g class="trace scatter trace000002" style="stroke-miterlimit: 2; opacity: 1;"><g class="fills"/><g class="errorbars"/><g class="lines"/><g class="points"><path class="point" transform="translate(437.84,244.35)" d="M-6.93,-3H6.93L0,6Z" style="opacity: 1; stroke-width: 0px; fill: rgb(192, 57, 43); fill-opacity: 1;"/><path class="point" transform="translate(462.04,244.35)" d="M-6.93,-3H6.93L0,6Z" style="opacity: 1; stroke-width: 0px; fill: rgb(192, 57, 43); fill-opacity: 1;"/><path class="point" transform="translate(486.23,244.35)" d="M-6.93,-3H6.93L0,6Z" style="opacity: 1; stroke-width: 0px; fill: rgb(192, 57, 43); fill-opacity: 1;"/><path class="point" transform="translate(509.65,244.35)" d="M-6.93,-3H6.93L0,6Z" style="opacity: 1; stroke-width: 0px; fill: rgb(192, 57, 43); fill-opacity: 1;"/><path class="point" transform="translate(533.84,244.35)" d="M-6.93,-3H6.93L0,6Z" style="opacity: 1; stroke-width: 0px; fill: rgb(192, 57, 43); fill-opacity: 1;"/><path class="point" transform="translate(557.25,244.35)" d="M-6.93,-3H6.93L0,6Z" style="opacity: 1; stroke-width: 0px; fill: rgb(192, 57, 43); fill-opacity: 1;"/><path class="point" transform="translate(581.45,244.35)" d="M-6.93,-3H6.93L0,6Z" style="opacity: 1; stroke-width: 0px; fill: rgb(192, 57, 43); fill-opacity: 1;"/><path class="point" transform="translate(605.64,244.35)" d="M-6.93,-3H6.93L0,6Z" style="opacity: 1; stroke-width: 0px; fill: rgb(192, 57, 43); fill-opacity: 1;"/><path class="point" transform="translate(627.5,244.35)" d="M-6.93,-3H6.93L0,6Z" style="opacity: 1; stroke-width: 0px; fill: rgb(192, 57, 43); fill-opacity: 1;"/><path class="point" transform="translate(651.69,244.35)" d="M-6.93,-3H6.93L0,6Z" style="opacity: 1; stroke-width: 0px; fill: rgb(192, 57, 43); fill-opacity: 1;"/><path class="point" transform="translate(675.11,244.35)" d="M-6.93,-3H6.93L0,6Z" style="opacity: 1; stroke-width: 0px; fill: rgb(192, 57, 43); fill-opacity: 1;"/><path class="point" transform="translate(699.3,244.35)" d="M-6.93,-3H6.93L0,6Z" style="opacity: 1; stroke-width: 0px; fill: rgb(192, 57, 43); fill-opacity: 1;"/></g><g class="text"/></g><g class="trace scatter trace000003" style="stroke-miterlimit: 2; opacity: 1;"><g class="fills"/><g class="errorbars"/><g class="lines"><path class="js-line" d="M437.84,39.15L675.11,39.15L699.3,147.59" style="vector-effect: none; fill: none; stroke: rgb(127, 140, 141); stroke-opacity: 1; stroke-dasharray: 3px, 3px; stroke-width: 2px; opacity: 1;"/></g><g class="points"/><g class="text"/></g></g></g></g><g class="zerolinelayer-above"/><path class="xlines-above crisp" d="M0,0" style="fill: none;"/><path class="ylines-above crisp" d="M0,0" style="fill: none;"/><g class="overlines-above"/><g class="xaxislayer-above"><g class="xtick"><text text-anchor="middle" x="0" y="383" transform="translate(90.93,0)" style="font-family: 'Liberation Sans', Arial, sans-serif; font-size: 12px; fill: rgb(42, 63, 95); fill-opacity: 1; white-space: pre;">Jan 2023</text></g><g class="xtick"><text text-anchor="middle" x="0" y="383" style="font-family: 'Liberation Sans', Arial, sans-serif; font-size: 12px; fill: rgb(42, 63, 95); fill-opacity: 1; white-space: pre;" transform="translate(232.19,0)">Jul 2023</text></g><g class="xtick"><text text-anchor="middle" x="0" y="383" style="font-family: 'Liberation Sans', Arial, sans-serif; font-size: 12px; fill: rgb(42, 63, 95); fill-opacity: 1; white-space: pre;" transform="translate(375.8,0)">Jan 2024</text></g><g class="xtick"><text text-anchor="middle" x="0" y="383" style="font-family: 'Liberation Sans', Arial, sans-serif; font-size: 12px; fill: rgb(42, 63, 95); fill-opacity: 1; white-space: pre;" transform="translate(517.8399999999999,0)">Jul 2024</text></g><g class="xtick"><text text-anchor="middle" x="0" y="383" style="font-family: 'Liberation Sans', Arial, sans-serif; font-size: 12px; fill: rgb(42, 63, 95); fill-opacity: 1; white-space: pre;" transform="translate(661.45,0)">Jan 2025</text></g><g class="xtick"><text text-anchor="middle" x="0" y="383" style="font-family: 'Liberation Sans', Arial, sans-serif; font-size: 12px; fill: rgb(42, 63, 95); fill-opacity: 1; white-space: pre;" transform="translate(802.71,0)">Jul 2025</text></g></g><g class="yaxislayer-above"><g class="ytick"><text text-anchor="end" x="79" y="4.199999999999999" transform="translate(0,370)" style="font-family: 'Liberation Sans', Arial, sans-serif; font-size: 12px; fill: rgb(42, 63, 95); fill-opacity: 1; white-space: pre;">0</text></g><g class="ytick"><text text-anchor="end" x="79" y="4.199999999999999" style="font-family: 'Liberation Sans', Arial, sans-serif; font-size: 12px; fill: rgb(42, 63, 95); fill-opacity: 1; white-space: pre;" transform="translate(0,298.75)">500</text></g><g class="ytick"><text text-anchor="end" x="79" y="4.199999999999999" style="font-family: 'Liberation Sans', Arial, sans-serif; font-size: 12px; fill: rgb(42, 63, 95); fill-opacity: 1; white-space: pre;" transform="translate(0,227.5)">1000</text></g><g class="ytick"><text text-anchor="end" x="79" y="4.199999999999999" style="font-family: 'Liberation Sans', Arial, sans-serif; font-size: 12px; fill: rgb(42, 63, 95); fill-opacity: 1; white-space: pre;" transform="translate(0,156.25)">1500</text></g></g><g class="overaxes-above"/></g></g><g class="polarlayer"/><g class="smithlayer"/><g class="ternarylayer"/><g class="geolayer"/><g class="funnelarealayer"/><g class="pielayer"/><g class="iciclelayer"/><g class="treemaplayer"/><g class="sunburstlayer"/><g class="glimages"/><defs id="topdefs-000000"><g class="clips"/><clipPath id="legend000000"><rect width="149" height="105" x="0" y="0"/></clipPath></defs><g class="layer-above"><g class="imagelayer"/><g class="shapelayer"/></g><g class="infolayer"><g class="legend" pointer-events="all" transform="translate(838.88,100)"><rect class="bg" shape-rendering="crispEdges" style="stroke: rgb(68, 68, 68); stroke-opacity: 1; fill: rgb(255, 255, 255); fill-opacity: 1; stroke-width: 0px;" width="149" height="105" x="0" y="0"/><g class="scrollbox" transform="" clip-path="url(#legend000000)"><g class="groups"><g class="traces" transform="translate(0,14.5)" style="opacity: 1;"><text class="legendtext" text-anchor="start" x="40" y="4.680000000000001" style="font-family: 'Liberation Sans', Arial, sans-serif; font-size: 12px; fill: rgb(42, 63, 95); fill-opacity: 1; white-space: pre;">mature</text><g class="layers" style="opacity: 1;"><g class="legendfill"/><g class="legendlines"/><g class="legendsymbols"><g class="legendpoints"><path class="legendundefined" d="M6,6H-6V-6H6Z" transform="translate(20,0)" style="stroke-width: 0.5px; fill: rgb(47, 111, 178); fill-opacity: 1; stroke: rgb(229, 236, 246); stroke-opacity: 1;"/></g></g></g><rect class="legendtoggle" x="0" y="-9.5" width="143.375" height="19" style="fill: rgb(0, 0, 0); fill-opacity: 0;"/></g><g class="traces" transform="translate(0,33.5)" style="opacity: 1;"><text class="legendtext" text-anchor="start" x="40" y="4.680000000000001" style="font-family: 'Liberation Sans', Arial, sans-serif; font-size: 12px; fill: rgb(42, 63, 95); fill-opacity: 1; white-space: pre;">immature</text><g class="layers" style="opacity: 1;"><g class="legendfill"/><g class="legendlines"/><g class="legendsymbols"><g class="legendpoints"><path class="legendundefined" d="M6,6H-6V-6H6Z" transform="translate(20,0)" style="stroke-width: 0.5px; fill: rgb(142, 187, 227); fill-opacity: 1; stroke: rgb(229, 236, 246); stroke-opacity: 1;"/></g></g></g><rect class="legendtoggle" x="0" y="-9.5" width="143.375" height="19" style="fill: rgb(0, 0, 0); fill-opacity: 0;"/></g><g class="traces" transform="translate(0,52.5)" style="opacity: 1;"><text class="legendtext" text-anchor="start" x="40" y="4.680000000000001" style="font-family: 'Liberation Sans', Arial, sans-serif; font-size: 12px; fill: rgb(42, 63, 95); fill-opacity: 1; white-space: pre;">volume outlier (red)</text><g class="layers" style="opacity: 1;"><g class="legendfill"/><g class="legendlines"/><g class="legendsymbols"><g class="legendpoints"><path class="scatterpts" transform="translate(20,0)" d="M0,3.11l3.11,3.11l3.11,-3.11l-3.11,-3.11l3.11,-3.11l-3.11,-3.11l-3.11,3.11l-3.11,-3.11l-3.11,3.11l3.11,3.11l-3.11,3.11l3.11,3.11Z" style="opacity: 1; stroke-width: 0px; fill: rgb(192, 57, 43); fill-opacity: 1;"/></g></g></g><rect class="legendtoggle" x="0" y="-9.5" width="143.375" height="19" style="fill: rgb(0, 0, 0); fill-opacity: 0;"/></g><g class="traces" transform="translate(0,71.5)" style="opacity: 1;"><text class="legendtext" text-anchor="start" x="40" y="4.680000000000001" style="font-family: 'Liberation Sans', Arial, sans-serif; font-size: 12px; fill: rgb(42, 63, 95); fill-opacity: 1; white-space: pre;">arrival deficit</text><g class="layers" style="opacity: 1;"><g class="legendfill"/><g class="legendlines"/><g class="legendsymbols"><g class="legendpoints"><path class="scatterpts" transform="translate(20,0)" d="M-6.93,-3H6.93L0,6Z" style="opacity: 1; stroke-width: 0px; fill: rgb(192, 57, 43); fill-opacity: 1;"/></g></g></g><rect class="legendtoggle" x="0" y="-9.5" width="143.375" height="19" style="fill: rgb(0, 0, 0); fill-opacity: 0;"/></g><g class="traces" transform="translate(0,90.5)" style="opacity: 1;"><text class="legendtext" text-anchor="start" x="40" y="4.680000000000001" style="font-family: 'Liberation Sans', Arial, sans-serif; font-size: 12px; fill: rgb(42, 63, 95); fill-opacity: 1; white-space: pre;">expected fill (low)</text><g class="layers" style="opacity: 1;"><g class="legendfill"/><g class="legendlines"><path class="js-line" d="M5,0h30" style="fill: none; stroke: rgb(127, 140, 141); stroke-opacity: 1; stroke-dasharray: 3px, 3px; stroke-width: 2px;"/></g><g class="legendsymbols"><g class="legendpoints"/></g></g><rect class="legendtoggle" x="0" y="-9.5" width="143.375" height="19" style="fill: rgb(0, 0, 0); fill-opacity: 0;"/></g></g></g><rect class="scrollbar" rx="20" ry="3" width="0" height="0" style="fill: rgb(128, 139, 164); fill-opacity: 1;" x="0" y="0"/></g><g class="g-gtitle"><text class="gtitle" x="50" y="50" text-anchor="start" dy="0em" style="opacity: 1; font-family: 'Liberation Sans', Arial, sans-serif; font-size: 17px; fill: rgb(42, 63, 95); fill-opacity: 1; white-space: pre;">Rows per event month — card_disputes</text></g><g class="g-xtitle"><text class="xtitle" x="452" y="410.3" text-anchor="middle" style="opacity: 1; font-family: 'Liberation Sans', Arial, sans-serif; font-size: 14px; fill: rgb(42, 63, 95); fill-opacity: 1; white-space: pre;">event month</text></g><g class="g-ytitle"><text class="ytitle" transform="rotate(-90,32.896875,235)" x="32.896875" y="235" text-anchor="middle" style="opacity: 1; font-family: 'Liberation Sans', Arial, sans-serif; font-size: 14px; fill: rgb(42, 63, 95); fill-opacity: 1; white-space: pre;">rows</text></g></g></svg>